<svg width="40" height="40" viewBox="0 0 40 40" fill="none" xmlns="http://www.w3.org/2000/svg">
<path d="M13.3334 9.58325C12.65 9.58325 12.0834 9.01659 12.0834 8.33325V3.33325C12.0834 2.64992 12.65 2.08325 13.3334 2.08325C14.0167 2.08325 14.5834 2.64992 14.5834 3.33325V8.33325C14.5834 9.01659 14.0167 9.58325 13.3334 9.58325Z" fill="#DF6951"/>
<path d="M26.6666 9.58325C25.9833 9.58325 25.4166 9.01659 25.4166 8.33325V3.33325C25.4166 2.64992 25.9833 2.08325 26.6666 2.08325C27.35 2.08325 27.9166 2.64992 27.9166 3.33325V8.33325C27.9166 9.01659 27.35 9.58325 26.6666 9.58325Z" fill="#DF6951"/>
<path d="M14.1667 24.167C13.7333 24.167 13.3 23.9836 12.9833 23.6836C12.6833 23.367 12.5 22.9503 12.5 22.5003C12.5 22.2836 12.55 22.067 12.6333 21.867C12.7167 21.667 12.8333 21.4837 12.9833 21.317C13.6 20.7003 14.7167 20.7003 15.35 21.317C15.65 21.6337 15.8333 22.067 15.8333 22.5003C15.8333 22.6003 15.8167 22.717 15.8 22.8337C15.7833 22.9337 15.75 23.0337 15.7 23.1337C15.6667 23.2337 15.6167 23.3336 15.55 23.4336C15.4833 23.517 15.4167 23.6003 15.35 23.6836C15.0333 23.9836 14.6 24.167 14.1667 24.167Z" fill="#DF6951"/>
<path d="M20 24.1664C19.7834 24.1664 19.5667 24.1164 19.3667 24.0331C19.15 23.9497 18.9834 23.833 18.8167 23.683C18.5167 23.3664 18.3334 22.9497 18.3334 22.4997C18.3334 22.283 18.3834 22.0664 18.4667 21.8664C18.55 21.6664 18.6667 21.4831 18.8167 21.3164C18.9834 21.1664 19.15 21.0497 19.3667 20.9663C19.9834 20.7163 20.7167 20.8497 21.1834 21.3164C21.4834 21.6331 21.6667 22.0664 21.6667 22.4997C21.6667 22.5997 21.65 22.7164 21.6334 22.8331C21.6167 22.9331 21.5834 23.033 21.5334 23.133C21.5 23.233 21.45 23.333 21.3834 23.433C21.3334 23.5164 21.25 23.5997 21.1834 23.683C20.8667 23.983 20.4334 24.1664 20 24.1664Z" fill="#DF6951"/>
<path d="M14.1667 29.9996C13.95 29.9996 13.7333 29.9496 13.5333 29.8662C13.3167 29.7829 13.1333 29.6662 12.9833 29.5162C12.8333 29.3662 12.7167 29.1829 12.6333 28.9662C12.55 28.7662 12.5 28.5496 12.5 28.3329C12.5 28.1162 12.55 27.8996 12.6333 27.6996C12.7167 27.4829 12.8333 27.2996 12.9833 27.1496C13.1333 26.9996 13.3167 26.8829 13.5333 26.7995C13.9333 26.6329 14.4 26.6162 14.8 26.7995C15.0167 26.8829 15.2 26.9996 15.35 27.1496C15.5 27.2996 15.6167 27.4829 15.7 27.6996C15.7833 27.8996 15.8333 28.1162 15.8333 28.3329C15.8333 28.5496 15.7833 28.7662 15.7 28.9662C15.6167 29.1829 15.5 29.3662 15.35 29.5162C15.2 29.6662 15.0167 29.7829 14.8 29.8662C14.6 29.9496 14.3833 29.9996 14.1667 29.9996Z" fill="#DF6951"/>
<path d="M34.1667 16.3997H5.83337C5.15004 16.3997 4.58337 15.833 4.58337 15.1497C4.58337 14.4663 5.15004 13.8997 5.83337 13.8997H34.1667C34.85 13.8997 35.4167 14.4663 35.4167 15.1497C35.4167 15.833 34.85 16.3997 34.1667 16.3997Z" fill="#DF6951"/>
<path d="M30 39.5833C28.05 39.5833 26.2 38.8833 24.7834 37.6C24.1834 37.1 23.65 36.4667 23.2167 35.7333C22.4834 34.5333 22.0834 33.1167 22.0834 31.6667C22.0834 27.3 25.6334 23.75 30 23.75C32.2667 23.75 34.4334 24.7333 35.9334 26.4333C37.2167 27.9 37.9167 29.75 37.9167 31.6667C37.9167 33.1167 37.5167 34.5334 36.7667 35.75C35.3667 38.1167 32.7667 39.5833 30 39.5833ZM30 26.25C27.0167 26.25 24.5834 28.6833 24.5834 31.6667C24.5834 32.65 24.85 33.6167 25.3667 34.45C25.65 34.95 26.0167 35.3667 26.4167 35.7167C27.4167 36.6167 28.6667 37.0833 30 37.0833C31.9167 37.0833 33.65 36.1 34.6334 34.4667C35.15 33.6167 35.4167 32.6667 35.4167 31.6667C35.4167 30.3667 34.9334 29.1 34.0667 28.0833C33.0334 26.9167 31.55 26.25 30 26.25Z" fill="#DF6951"/>
<path d="M29.0498 34.5667C28.7331 34.5667 28.4164 34.4501 28.1664 34.2001L26.5164 32.5501C26.0331 32.0667 26.0331 31.2668 26.5164 30.7834C26.9998 30.3001 27.7998 30.3001 28.2831 30.7834L29.0831 31.5834L31.7498 29.1168C32.2498 28.6501 33.0498 28.6834 33.5164 29.1834C33.9831 29.6834 33.9498 30.4834 33.4498 30.9501L29.8998 34.2334C29.6498 34.4501 29.3498 34.5667 29.0498 34.5667Z" fill="#DF6951"/>
<path d="M25.6167 37.9166H13.3333C7.25 37.9166 3.75 34.4166 3.75 28.3333V14.1666C3.75 8.08325 7.25 4.58325 13.3333 4.58325H26.6667C32.75 4.58325 36.25 8.08325 36.25 14.1666V27.2666C36.25 27.7832 35.9333 28.2499 35.4333 28.4332C34.95 28.6166 34.4 28.4833 34.05 28.0833C33.0167 26.9166 31.5333 26.2499 29.9833 26.2499C27 26.2499 24.5667 28.6833 24.5667 31.6666C24.5667 32.6499 24.8333 33.6166 25.35 34.4499C25.6333 34.9499 26 35.3666 26.4 35.7166C26.8 36.0499 26.95 36.5999 26.7667 37.0999C26.6167 37.5833 26.15 37.9166 25.6167 37.9166ZM13.3333 7.08325C8.56667 7.08325 6.25 9.39992 6.25 14.1666V28.3333C6.25 33.0999 8.56667 35.4166 13.3333 35.4166H23.0333C22.4167 34.2833 22.0833 32.9999 22.0833 31.6666C22.0833 27.2999 25.6333 23.7499 30 23.7499C31.3167 23.7499 32.6167 24.0833 33.75 24.6999V14.1666C33.75 9.39992 31.4333 7.08325 26.6667 7.08325H13.3333Z" fill="#DF6951"/>
</svg>
