
<svg width="15" height="16" viewBox="0 0 15 16" fill="none" xmlns="http://www.w3.org/2000/svg">
<path d="M11.3481 9.94079L10.0936 10.6459C9.94303 10.7304 9.76887 10.7635 9.59771 10.7401C9.42654 10.7166 9.26777 10.6379 9.14563 10.516L4.9584 6.3387C4.83628 6.2168 4.75746 6.05841 4.73396 5.88767C4.71045 5.71694 4.74355 5.54321 4.82821 5.39298L5.53498 4.14141C5.6622 3.91615 5.71201 3.65554 5.6768 3.39938C5.64159 3.14323 5.5233 2.90561 5.33999 2.72284L3.45967 0.846973C3.34946 0.736972 3.21861 0.649712 3.07458 0.590177C2.93056 0.530643 2.7762 0.5 2.6203 0.5C2.46441 0.5 2.31004 0.530643 2.16602 0.590177C2.022 0.649712 1.89114 0.736972 1.78094 0.846973L0.927171 1.69812C0.427915 2.19618 0.109899 2.84646 0.02369 3.54556C-0.0625195 4.24467 0.0880266 4.95246 0.451391 5.55639L0.879773 6.26867C3.06742 9.90603 6.15523 12.9216 9.847 15.0261L9.9316 15.0746C11.1927 15.7934 12.7509 15.5839 13.7606 14.5772L14.6522 13.6877C14.7625 13.5778 14.8499 13.4472 14.9096 13.3036C14.9693 13.1599 15 13.0059 15 12.8504C15 12.6948 14.9693 12.5408 14.9096 12.3971C14.8499 12.2535 14.7625 12.1229 14.6522 12.013L12.7707 10.1359C12.5875 9.95281 12.3492 9.8346 12.0924 9.79936C11.8355 9.76412 11.5741 9.8138 11.3481 9.94079Z" fill="white"/>
</svg>
