<svg width="31" height="17" viewBox="0 0 31 17" fill="none" xmlns="http://www.w3.org/2000/svg">
  <path d="M30.036 2.25207C30.2265 2.58764 30.2541 3.01776 30.128 3.38225C29.3925 5.52383 27.911 7.31398 25.9513 8.42586L12.0064 16.2578C11.1225 16.7543 10.1386 17 9.15629 17C7.96505 17 6.77638 16.6382 5.7729 15.9243L1.27171 12.7195C0.897406 12.4529 0.684633 12.0135 0.708303 11.5538C0.73332 11.0948 0.989401 10.6797 1.38993 10.4531L4.98354 8.42182C5.42348 8.17354 5.96079 8.19331 6.3823 8.46715L9.1497 10.2791L11.6913 8.81334L5.27123 4.55062C4.88374 4.29386 4.65658 3.85648 4.66962 3.3922C4.6828 2.92859 4.93499 2.50425 5.33552 2.26983L8.89617 0.18473C9.26523 -0.0326159 9.71835 -0.0595157 10.1097 0.11116L19.0123 3.97134L20.3691 3.1341C23.0012 1.49096 26.1194 0.933471 29.1521 1.57179C29.5291 1.65047 29.8456 1.9165 30.036 2.25207ZM21.789 5.41946L19.828 6.62912C19.4537 6.85965 18.9901 6.89381 18.5868 6.71843L9.6659 2.85031L8.55348 3.50181L14.9867 7.77382C15.3755 8.03125 15.6027 8.47132 15.587 8.93681C15.5726 9.40176 15.319 9.82664 14.9158 10.0592L9.77766 13.0223C9.33504 13.2771 8.79261 13.2606 8.36827 12.9829L5.59429 11.167L4.55409 11.7548L7.33198 13.7328C8.31837 14.4335 9.63442 14.5051 10.6905 13.9121L24.63 6.08334C25.5218 5.57696 26.2757 4.86843 26.8431 4.00685C25.0647 3.98519 23.3244 4.45997 21.789 5.41946Z" fill="#bfbfbf"/>
</svg>
