<svg width="8" height="8" viewBox="0 0 8 8" fill="none" xmlns="http://www.w3.org/2000/svg">
<path d="M6.8 0H1.2C0.88174 0 0.576516 0.126428 0.351472 0.351472C0.126428 0.576515 7.23512e-08 0.88174 7.23512e-08 1.2V1.668C-5.72829e-05 1.83318 0.0339866 1.99659 0.1 2.148V2.172C0.156512 2.30039 0.236557 2.41706 0.336 2.516L2.8 4.964V7.6C2.79986 7.66798 2.81705 7.73487 2.84995 7.79436C2.88284 7.85385 2.93036 7.90397 2.988 7.94C3.05166 7.97945 3.12511 8.00024 3.2 8C3.26262 7.99962 3.32427 7.98455 3.38 7.956L4.98 7.156C5.04597 7.12276 5.10144 7.0719 5.14027 7.00906C5.1791 6.94623 5.19978 6.87387 5.2 6.8V4.964L7.648 2.516C7.74744 2.41706 7.82749 2.30039 7.884 2.172V2.148C7.95553 1.99777 7.99503 1.83431 8 1.668V1.2C8 0.88174 7.87357 0.576515 7.64853 0.351472C7.42348 0.126428 7.11826 0 6.8 0ZM4.516 4.516C4.47893 4.55337 4.4496 4.5977 4.42969 4.64644C4.40979 4.69517 4.3997 4.74736 4.4 4.8V6.552L3.6 6.952V4.8C3.6003 4.74736 3.59021 4.69517 3.57031 4.64644C3.5504 4.5977 3.52107 4.55337 3.484 4.516L1.364 2.4H6.636L4.516 4.516ZM7.2 1.6H0.8V1.2C0.8 1.09391 0.842143 0.992172 0.917157 0.917157C0.992172 0.842143 1.09391 0.8 1.2 0.8H6.8C6.90609 0.8 7.00783 0.842143 7.08284 0.917157C7.15786 0.992172 7.2 1.09391 7.2 1.2V1.6Z" fill="#1A1A1A"/>
</svg>
