<svg width="39" height="39" viewBox="0 0 39 39" fill="none" xmlns="http://www.w3.org/2000/svg">
<path fill-rule="evenodd" clip-rule="evenodd" d="M8.34322 3.70166C6.96396 4.65322 5.71675 5.77827 4.63404 7.04475C9.05846 6.63946 14.6795 7.30124 21.2055 10.5208C28.1744 13.9587 33.7861 14.0749 37.6915 13.3316C37.3371 12.273 36.891 11.2556 36.3626 10.2884C31.8919 10.7536 26.1605 10.1378 19.481 6.84269C15.2395 4.7502 11.5006 3.88823 8.34322 3.70166ZM33.751 6.62074C30.2205 2.72868 25.0898 0.279297 19.3792 0.279297C17.7022 0.279297 16.075 0.490569 14.5238 0.887583C16.6247 1.45318 18.8566 2.28065 21.2055 3.4395C26.0959 5.85204 30.3179 6.62883 33.751 6.62074ZM38.5265 17.0475C33.8083 17.9667 27.293 17.7779 19.481 13.9239C12.1776 10.3209 6.36466 10.3663 2.44423 11.2259C2.24187 11.2702 2.04428 11.3168 1.85145 11.3654C1.33817 12.4668 0.928455 13.625 0.634479 14.8277C0.948462 14.7449 1.27291 14.6663 1.60767 14.5928C6.36383 13.55 13.0839 13.5953 21.2055 17.602C28.509 21.2051 34.3219 21.1597 38.2424 20.3001C38.3767 20.2707 38.5091 20.2402 38.6392 20.2088C38.6535 19.9089 38.6606 19.6071 38.6606 19.3037C38.6606 18.5403 38.6151 17.7874 38.5265 17.0475ZM38.0097 24.2237C33.3373 25.0296 27.0117 24.7203 19.481 21.0052C12.1776 17.4022 6.36466 17.4475 2.44423 18.3072C1.57401 18.4979 0.791176 18.7303 0.100603 18.9756C0.0987202 19.0847 0.0977783 19.1941 0.0977783 19.3037C0.0977783 29.8105 8.73036 38.3281 19.3792 38.3281C28.3037 38.3281 35.8121 32.3457 38.0097 24.2237Z" fill="#7F57F1"/>
</svg>
