<svg fill="none" height="40" viewBox="0 0 20 20" width="40" xmlns="http://www.w3.org/2000/svg">
  <g fill="#DF6951">
    <path d="m8.49279 4.90114c-.358.06996-.74889.30223-1.05805.84598-.13648.24006-.44173.32402-.68178.18753-.24006-.13648-.32402-.44173-.18753-.68178.44085-.77538 1.06785-1.20267 1.73556-1.33317.65291-.1276 1.30196.03697 1.79221.36156.4836.32024.8747.84297.8872 1.47061.013.65415-.3858 1.24485-1.11917 1.67849-.4986.29484-.69254.49477-.77497.62759-.06939.1118-.08617.21377-.08617.44205 0 .27614-.22386.5-.5.5-.27615 0-.5-.22386-.5-.5 0-.27173.0139-.61071.23651-.96939.20957-.33766.56895-.63774 1.11562-.96101.53496-.31634.63194-.61792.62837-.79787-.0041-.20646-.14193-.45965-.43951-.65668-.29103-.1927-.67549-.28677-1.04829-.21391z"/>
    <path d="m8.75 11.5c.41421 0 .75-.3358.75-.75s-.33579-.75-.75-.75-.75.3358-.75.75.33579.75.75.75z"/>
    <path d="m8.50019 1c-3.58985 0-6.5 2.91015-6.5 6.5 0 1.151.29959 2.23335.82525 3.1719l-.79574 2.0823c-.29328.7674.4127 1.5415 1.20382 1.3199l2.48738-.6967c.8432.3994 1.78581.6226 2.77929.6226 3.58981 0 6.50001-2.9101 6.50001-6.5 0-3.58985-2.9102-6.5-6.50001-6.5zm-5.5 6.5c0-3.03757 2.46244-5.5 5.5-5.5 3.03761 0 5.50001 2.46243 5.50001 5.5 0 3.0376-2.4624 5.5-5.50001 5.5-.90213 0-1.75216-.2168-2.50221-.6007l-.17421-.0892-2.85996.801.96911-2.5358-.12829-.2098c-.51025-.83415-.80444-1.81471-.80444-2.8655z"/>
    <path d="m11.4628 17c-1.96965 0-3.73466-.8761-4.92667-2.2598.56305.1524 1.15238.2408 1.75971.2571.89539.6317 1.98786 1.0027 3.16696 1.0027.9021 0 1.7521-.2168 2.5022-.6007l.1742-.0892 2.86.801-.9691-2.5359.1282-.2097c.5103-.8342.8045-1.8147.8045-2.8655 0-1.15448-.3557-2.22586-.9635-3.11057-.0088-.60778-.0898-1.19806-.235-1.76263 1.3482 1.19099 2.1985 2.9328 2.1985 4.8732 0 1.151-.2996 2.2333-.8253 3.1719l.7958 2.0823c.2933.7674-.4127 1.5415-1.2038 1.3199l-2.4874-.6967c-.8432.3994-1.7858.6226-2.7793.6226z"/>
  </g>
</svg>
