<svg width="40" height="40" viewBox="0 0 40 40" fill="none" xmlns="http://www.w3.org/2000/svg">
<path d="M24.5 37.9171H15.5C7.26669 37.9171 3.76669 34.4004 3.76669 26.1838V18.7004C3.76669 18.0171 4.33336 17.4504 5.01669 17.4504C5.70003 17.4504 6.26669 18.0171 6.26669 18.7004V26.1838C6.26669 33.0004 8.68336 35.4171 15.5 35.4171H24.4834C31.3 35.4171 33.7167 33.0004 33.7167 26.1838V18.7004C33.7167 18.0171 34.2834 17.4504 34.9667 17.4504C35.65 17.4504 36.2167 18.0171 36.2167 18.7004V26.1838C36.2334 34.4004 32.7167 37.9171 24.5 37.9171Z" fill="#DF6951"/>
<path d="M20 21.2499C18.1667 21.2499 16.5 20.5333 15.3167 19.2166C14.1333 17.8999 13.5833 16.1833 13.7667 14.3499L14.8833 3.21659C14.95 2.58325 15.4833 2.08325 16.1333 2.08325H23.9167C24.5667 2.08325 25.1 2.56659 25.1667 3.21659L26.2833 14.3499C26.4667 16.1833 25.9167 17.8999 24.7333 19.2166C23.5 20.5333 21.8333 21.2499 20 21.2499ZM17.25 4.58325L16.25 14.5999C16.1333 15.7166 16.4667 16.7666 17.1667 17.5333C18.5833 19.0999 21.4167 19.0999 22.8333 17.5333C23.5333 16.7499 23.8667 15.6999 23.75 14.5999L22.75 4.58325H17.25Z" fill="#DF6951"/>
<path d="M30.5167 21.2499C27.1333 21.2499 24.1167 18.5166 23.7667 15.1499L22.6 3.46659C22.5667 3.11659 22.6833 2.76659 22.9167 2.49992C23.15 2.23325 23.4833 2.08325 23.85 2.08325H28.9333C33.8333 2.08325 36.1167 4.13325 36.8 9.16658L37.2667 13.7999C37.4667 15.7666 36.8667 17.6333 35.5833 19.0499C34.3 20.4666 32.5 21.2499 30.5167 21.2499ZM25.2333 4.58325L26.2667 14.8999C26.4833 16.9833 28.4167 18.7499 30.5167 18.7499C31.7833 18.7499 32.9167 18.2666 33.7333 17.3833C34.5333 16.4999 34.9 15.3166 34.7833 14.0499L34.3167 9.46658C33.8 5.69992 32.5833 4.58325 28.9333 4.58325H25.2333Z" fill="#DF6951"/>
<path d="M9.40004 21.2499C7.4167 21.2499 5.6167 20.4666 4.33337 19.0499C3.05004 17.6333 2.45004 15.7666 2.65004 13.7999L3.10004 9.21659C3.80004 4.13325 6.08337 2.08325 10.9834 2.08325H16.0667C16.4167 2.08325 16.75 2.23325 17 2.49992C17.25 2.76659 17.35 3.11659 17.3167 3.46659L16.15 15.1499C15.8 18.5166 12.7834 21.2499 9.40004 21.2499ZM10.9834 4.58325C7.33337 4.58325 6.1167 5.68325 5.58337 9.49992L5.13337 14.0499C5.00004 15.3166 5.38337 16.4999 6.18337 17.3833C6.98337 18.2666 8.1167 18.7499 9.40004 18.7499C11.5 18.7499 13.45 16.9833 13.65 14.8999L14.6834 4.58325H10.9834Z" fill="#DF6951"/>
<path d="M24.1667 37.9166H15.8333C15.15 37.9166 14.5833 37.3499 14.5833 36.6666V32.4999C14.5833 28.9999 16.5 27.0833 20 27.0833C23.5 27.0833 25.4167 28.9999 25.4167 32.4999V36.6666C25.4167 37.3499 24.85 37.9166 24.1667 37.9166ZM17.0833 35.4166H22.9167V32.4999C22.9167 30.3999 22.1 29.5833 20 29.5833C17.9 29.5833 17.0833 30.3999 17.0833 32.4999V35.4166Z" fill="#DF6951"/>
</svg>
