<svg width="23" height="20" viewBox="0 0 23 20" fill="none" xmlns="http://www.w3.org/2000/svg">
  <path d="M21.4378 14.6801C20.2006 13.0717 18.5923 11.9583 16.6128 11.216L14.8807 2.43192C14.757 2.06077 14.5096 1.68961 14.1384 1.56589L10.798 0.0812652C10.4269 -0.0424537 10.0557 -0.0424535 9.68455 0.204984C9.31339 0.452422 9.06595 0.823578 9.06595 1.19473L8.57108 8.8653L6.34414 8.24671L5.60183 5.03002C5.60183 4.65886 5.35439 4.28771 4.98323 4.16399L2.63258 3.17424C2.26142 2.9268 1.89026 2.9268 1.51911 3.17424C1.14795 3.42167 0.900512 3.79283 0.900512 4.16399L0.776793 7.87555C0.653074 10.1025 1.89026 12.2057 3.99348 13.1955L18.4686 19.7526C18.8397 19.8763 19.2109 20 19.7058 20C20.3244 20 21.0667 19.7526 21.5616 19.3814C22.1802 18.8865 22.5513 18.1442 22.675 17.4019C22.7987 16.6596 22.5513 15.7936 22.0564 15.175L21.4378 14.6801ZM19.9532 17.5256C19.8295 17.6493 19.5821 17.6493 19.4583 17.5256L4.98323 10.9685C3.86976 10.4736 3.12745 9.23646 3.25117 7.99927L3.37489 6.01977L4.1172 9.36018C4.24092 9.85505 4.48836 10.1025 4.98323 10.2262L9.43711 11.4634C9.80827 11.5871 10.1794 11.4634 10.5506 11.3397C10.798 11.0922 11.0455 10.8448 11.0455 10.3499L11.5403 2.80308L12.6538 3.29796L14.3859 12.2057C14.5096 12.7006 14.757 13.0717 15.2519 13.1955C16.984 13.6903 18.4686 14.6801 19.5821 16.041L20.0769 16.6596C20.2006 16.7833 20.2006 16.907 20.2006 17.0307C20.0769 17.2782 20.0769 17.4019 19.9532 17.5256Z" fill="#bfbfbf"/>
</svg>
