<svg width="19" height="18" viewBox="0 0 19 18" fill="none" xmlns="http://www.w3.org/2000/svg">
<path d="M13.6769 10.809C13.4972 10.7191 12.3286 10.1798 12.1489 10.0899C11.9691 10 11.7893 10 11.6095 10.1798C11.4297 10.3596 11.0702 10.8989 10.8904 11.0787C10.8005 11.2584 10.6208 11.2584 10.441 11.1685C9.81177 10.8989 9.18256 10.5393 8.64323 10.0899C8.19379 9.64045 7.74436 9.10112 7.38481 8.5618C7.29492 8.38202 7.38481 8.20225 7.47469 8.11236C7.56458 8.02247 7.65447 7.8427 7.83424 7.75281C7.92413 7.66292 8.01402 7.48315 8.01402 7.39326C8.10391 7.30337 8.10391 7.1236 8.01402 7.03371C7.92413 6.94382 7.47469 5.86517 7.29492 5.41573C7.20503 4.78652 7.02526 4.78652 6.84548 4.78652H6.39604C6.21627 4.78652 5.9466 4.96629 5.85672 5.05618C5.31739 5.59551 5.04773 6.22472 5.04773 6.94382C5.13761 7.75281 5.40728 8.5618 5.9466 9.2809C6.93537 10.7191 8.19379 11.8876 9.72188 12.6067C10.1713 12.7865 10.5309 12.9663 10.9803 13.0562C11.4297 13.236 11.8792 13.236 12.4185 13.1461C13.0477 13.0562 13.5871 12.6067 13.9466 12.0674C14.1264 11.7079 14.1264 11.3483 14.0365 10.9888L13.6769 10.809ZM15.9241 2.62921C12.4185 -0.876404 6.75559 -0.876404 3.24997 2.62921C0.373569 5.50562 -0.165756 9.91011 1.81177 13.4157L0.553345 18L5.31739 16.7416C6.6657 17.4607 8.10391 17.8202 9.54211 17.8202C14.4859 17.8202 18.441 13.8652 18.441 8.92135C18.5309 6.58427 17.5421 4.33708 15.9241 2.62921ZM13.4972 15.2135C12.3286 15.9326 10.9803 16.382 9.54211 16.382C8.19379 16.382 6.93537 16.0225 5.76683 15.3933L5.49717 15.2135L2.71065 15.9326L3.42975 13.236L3.24997 12.9663C1.09267 9.37079 2.17132 4.8764 5.67694 2.62921C9.18256 0.382023 13.6769 1.55056 15.8342 4.96629C17.9915 8.47191 17.0028 13.0562 13.4972 15.2135Z" fill="white"/>
</svg>
