<svg xmlns="http://www.w3.org/2000/svg" xmlns:xlink="http://www.w3.org/1999/xlink" width="500" zoomAndPan="magnify" viewBox="0 0 375 374.999991" height="500" preserveAspectRatio="xMidYMid meet" version="1.0"><defs><g/><clipPath id="56ae434db0"><path d="M 81 168 L 107 168 L 107 182 L 81 182 Z M 81 168 " clip-rule="nonzero"/></clipPath><clipPath id="ca3995581d"><path d="M 80.964844 171.660156 L 106.882812 167.492188 L 108.550781 177.859375 L 82.632812 182.027344 Z M 80.964844 171.660156 " clip-rule="nonzero"/></clipPath><clipPath id="144f36e126"><path d="M 80.964844 171.660156 L 106.882812 167.492188 L 108.550781 177.859375 L 82.632812 182.027344 Z M 80.964844 171.660156 " clip-rule="nonzero"/></clipPath><clipPath id="750a19ea9d"><path d="M 108 150 L 281 150 L 281 171 L 108 171 Z M 108 150 " clip-rule="nonzero"/></clipPath><clipPath id="7864352ff7"><path d="M 108.367188 152.703125 L 280.046875 147.8125 L 280.644531 168.800781 L 108.964844 173.695312 Z M 108.367188 152.703125 " clip-rule="nonzero"/></clipPath><clipPath id="74ca605245"><path d="M 108.367188 152.703125 L 280.046875 147.8125 L 280.644531 168.800781 L 108.964844 173.695312 Z M 108.367188 152.703125 " clip-rule="nonzero"/></clipPath><clipPath id="269cac1ce1"><path d="M 281 164 L 304 164 L 304 182 L 281 182 Z M 281 164 " clip-rule="nonzero"/></clipPath><clipPath id="0b0630ff73"><path d="M 288.148438 160.695312 L 304.988281 180.832031 L 296.933594 187.566406 L 280.09375 167.433594 Z M 288.148438 160.695312 " clip-rule="nonzero"/></clipPath><clipPath id="c0ba68bf16"><path d="M 288.148438 160.695312 L 304.988281 180.832031 L 296.933594 187.566406 L 280.09375 167.433594 Z M 288.148438 160.695312 " clip-rule="nonzero"/></clipPath></defs><g fill="#000000" fill-opacity="1"><g transform="translate(31.621105, 220.875014)"><g><path d="M 7.015625 0 L 7.015625 -46.40625 L 23.875 -46.40625 C 26.976562 -46.40625 29.585938 -45.890625 31.703125 -44.859375 C 33.816406 -43.835938 35.398438 -42.390625 36.453125 -40.515625 C 37.515625 -38.640625 38.046875 -36.421875 38.046875 -33.859375 C 38.046875 -30.984375 37.328125 -28.609375 35.890625 -26.734375 C 34.453125 -24.867188 32.210938 -23.46875 29.171875 -22.53125 L 29.171875 -21.875 C 30.671875 -21.28125 31.894531 -20.347656 32.84375 -19.078125 C 33.800781 -17.804688 34.679688 -15.910156 35.484375 -13.390625 L 39.765625 0 L 34.15625 0 L 29.515625 -14.1875 C 28.960938 -15.851562 28.328125 -17.160156 27.609375 -18.109375 C 26.890625 -19.066406 25.976562 -19.757812 24.875 -20.1875 C 23.78125 -20.613281 22.382812 -20.828125 20.6875 -20.828125 L 12.46875 -20.828125 L 12.46875 0 Z M 23.734375 -25.453125 C 26.640625 -25.453125 28.800781 -26.125 30.21875 -27.46875 C 31.632812 -28.8125 32.34375 -30.859375 32.34375 -33.609375 C 32.34375 -36.359375 31.632812 -38.40625 30.21875 -39.75 C 28.800781 -41.09375 26.640625 -41.765625 23.734375 -41.765625 L 12.46875 -41.765625 L 12.46875 -25.453125 Z M 23.734375 -25.453125 "/></g></g></g><g fill="#000000" fill-opacity="1"><g transform="translate(71.339588, 220.875014)"><g><path d="M 20.09375 0.671875 C 16.789062 0.671875 13.914062 -0.0234375 11.46875 -1.421875 C 9.03125 -2.816406 7.148438 -4.875 5.828125 -7.59375 C 4.503906 -10.320312 3.84375 -13.617188 3.84375 -17.484375 C 3.84375 -21.359375 4.503906 -24.660156 5.828125 -27.390625 C 7.148438 -30.117188 9.03125 -32.179688 11.46875 -33.578125 C 13.914062 -34.972656 16.789062 -35.671875 20.09375 -35.671875 C 23.394531 -35.671875 26.265625 -34.972656 28.703125 -33.578125 C 31.148438 -32.179688 33.035156 -30.117188 34.359375 -27.390625 C 35.679688 -24.660156 36.34375 -21.359375 36.34375 -17.484375 C 36.34375 -13.617188 35.679688 -10.320312 34.359375 -7.59375 C 33.035156 -4.875 31.148438 -2.816406 28.703125 -1.421875 C 26.265625 -0.0234375 23.394531 0.671875 20.09375 0.671875 Z M 20.09375 -3.96875 C 23.582031 -3.96875 26.25 -5.066406 28.09375 -7.265625 C 29.945312 -9.460938 30.875 -12.867188 30.875 -17.484375 C 30.875 -22.117188 29.945312 -25.535156 28.09375 -27.734375 C 26.25 -29.941406 23.582031 -31.046875 20.09375 -31.046875 C 16.601562 -31.046875 13.925781 -29.9375 12.0625 -27.71875 C 10.195312 -25.507812 9.265625 -22.097656 9.265625 -17.484375 C 9.265625 -12.867188 10.195312 -9.460938 12.0625 -7.265625 C 13.925781 -5.066406 16.601562 -3.96875 20.09375 -3.96875 Z M 20.09375 -3.96875 "/></g></g></g><g fill="#000000" fill-opacity="1"><g transform="translate(108.265438, 220.875014)"><g><path d="M 14.4375 0.671875 C 10.988281 0.671875 8.296875 -0.226562 6.359375 -2.03125 C 4.421875 -3.832031 3.453125 -6.40625 3.453125 -9.75 C 3.453125 -11.820312 3.878906 -13.570312 4.734375 -15 C 5.597656 -16.425781 6.925781 -17.585938 8.71875 -18.484375 C 10.519531 -19.390625 12.875 -20.082031 15.78125 -20.5625 C 18.3125 -20.988281 20.238281 -21.460938 21.5625 -21.984375 C 22.882812 -22.515625 23.773438 -23.109375 24.234375 -23.765625 C 24.691406 -24.421875 24.921875 -25.25 24.921875 -26.25 C 24.921875 -27.832031 24.375 -29.046875 23.28125 -29.890625 C 22.1875 -30.742188 20.4375 -31.171875 18.03125 -31.171875 C 15.757812 -31.171875 13.816406 -30.726562 12.203125 -29.84375 C 10.585938 -28.96875 9.101562 -27.664062 7.75 -25.9375 L 7.109375 -25.9375 L 4.578125 -29.515625 C 6.054688 -31.398438 7.9375 -32.894531 10.21875 -34 C 12.5 -35.113281 15.101562 -35.671875 18.03125 -35.671875 C 22.15625 -35.671875 25.195312 -34.765625 27.15625 -32.953125 C 29.113281 -31.148438 30.09375 -28.648438 30.09375 -25.453125 L 30.09375 -6.890625 C 30.09375 -4.941406 30.914062 -3.96875 32.5625 -3.96875 C 33.113281 -3.96875 33.644531 -4.0625 34.15625 -4.25 L 34.59375 -4.125 L 35.203125 -0.546875 C 34.816406 -0.285156 34.3125 -0.0859375 33.6875 0.046875 C 33.0625 0.179688 32.421875 0.25 31.765625 0.25 C 29.835938 0.25 28.382812 -0.171875 27.40625 -1.015625 C 26.425781 -1.859375 25.796875 -3.109375 25.515625 -4.765625 L 24.84375 -4.828125 C 23.851562 -2.984375 22.507812 -1.601562 20.8125 -0.6875 C 19.125 0.21875 17 0.671875 14.4375 0.671875 Z M 15.578125 -3.453125 C 17.523438 -3.453125 19.210938 -3.898438 20.640625 -4.796875 C 22.066406 -5.703125 23.160156 -6.96875 23.921875 -8.59375 C 24.691406 -10.226562 25.078125 -12.113281 25.078125 -14.25 L 25.078125 -18.6875 L 24.46875 -18.828125 C 23.6875 -18.273438 22.734375 -17.8125 21.609375 -17.4375 C 20.492188 -17.070312 18.929688 -16.738281 16.921875 -16.4375 C 14.890625 -16.164062 13.273438 -15.742188 12.078125 -15.171875 C 10.878906 -14.597656 10.023438 -13.875 9.515625 -13 C 9.015625 -12.125 8.765625 -11.039062 8.765625 -9.75 C 8.765625 -7.695312 9.363281 -6.132812 10.5625 -5.0625 C 11.769531 -3.988281 13.441406 -3.453125 15.578125 -3.453125 Z M 15.578125 -3.453125 "/></g></g></g><g fill="#000000" fill-opacity="1"><g transform="translate(141.224483, 220.875014)"><g><path d="M 6.09375 0 L 6.09375 -35 L 11.015625 -35 L 11.015625 -29.828125 L 11.6875 -29.703125 C 12.863281 -31.671875 14.289062 -33.15625 15.96875 -34.15625 C 17.65625 -35.164062 19.675781 -35.671875 22.03125 -35.671875 C 24.738281 -35.671875 26.832031 -35.15625 28.3125 -34.125 C 29.789062 -33.101562 30.941406 -31.453125 31.765625 -29.171875 L 32.4375 -29.171875 C 33.644531 -31.304688 35.128906 -32.921875 36.890625 -34.015625 C 38.660156 -35.117188 40.835938 -35.671875 43.421875 -35.671875 C 47.015625 -35.671875 49.691406 -34.695312 51.453125 -32.75 C 53.222656 -30.800781 54.109375 -27.84375 54.109375 -23.875 L 54.109375 0 L 48.9375 0 L 48.9375 -23.734375 C 48.9375 -26.273438 48.398438 -28.148438 47.328125 -29.359375 C 46.265625 -30.566406 44.550781 -31.171875 42.1875 -31.171875 C 39.382812 -31.171875 37.097656 -30.15625 35.328125 -28.125 C 33.566406 -26.09375 32.6875 -22.75 32.6875 -18.09375 L 32.6875 0 L 27.515625 0 L 27.515625 -23.734375 C 27.515625 -26.273438 26.976562 -28.148438 25.90625 -29.359375 C 24.84375 -30.566406 23.125 -31.171875 20.75 -31.171875 C 17.957031 -31.171875 15.675781 -30.1875 13.90625 -28.21875 C 12.144531 -26.25 11.265625 -23.050781 11.265625 -18.625 L 11.265625 0 Z M 6.09375 0 "/></g></g></g><g fill="#000000" fill-opacity="1"><g transform="translate(197.635292, 220.875014)"><g/></g></g><g fill="#000000" fill-opacity="1"><g transform="translate(210.316008, 220.875014)"><g><path d="M 12.46875 -21.875 L 12.46875 -4.5 L 36.125 -4.5 L 36.125 0 L 7.015625 0 L 7.015625 -46.40625 L 35.609375 -46.40625 L 35.609375 -41.890625 L 12.46875 -41.890625 L 12.46875 -26.375 L 32.875 -26.375 L 32.875 -21.875 Z M 12.46875 -21.875 "/></g></g></g><g fill="#000000" fill-opacity="1"><g transform="translate(246.258099, 220.875014)"><g><path d="M 14.4375 0.671875 C 10.988281 0.671875 8.296875 -0.226562 6.359375 -2.03125 C 4.421875 -3.832031 3.453125 -6.40625 3.453125 -9.75 C 3.453125 -11.820312 3.878906 -13.570312 4.734375 -15 C 5.597656 -16.425781 6.925781 -17.585938 8.71875 -18.484375 C 10.519531 -19.390625 12.875 -20.082031 15.78125 -20.5625 C 18.3125 -20.988281 20.238281 -21.460938 21.5625 -21.984375 C 22.882812 -22.515625 23.773438 -23.109375 24.234375 -23.765625 C 24.691406 -24.421875 24.921875 -25.25 24.921875 -26.25 C 24.921875 -27.832031 24.375 -29.046875 23.28125 -29.890625 C 22.1875 -30.742188 20.4375 -31.171875 18.03125 -31.171875 C 15.757812 -31.171875 13.816406 -30.726562 12.203125 -29.84375 C 10.585938 -28.96875 9.101562 -27.664062 7.75 -25.9375 L 7.109375 -25.9375 L 4.578125 -29.515625 C 6.054688 -31.398438 7.9375 -32.894531 10.21875 -34 C 12.5 -35.113281 15.101562 -35.671875 18.03125 -35.671875 C 22.15625 -35.671875 25.195312 -34.765625 27.15625 -32.953125 C 29.113281 -31.148438 30.09375 -28.648438 30.09375 -25.453125 L 30.09375 -6.890625 C 30.09375 -4.941406 30.914062 -3.96875 32.5625 -3.96875 C 33.113281 -3.96875 33.644531 -4.0625 34.15625 -4.25 L 34.59375 -4.125 L 35.203125 -0.546875 C 34.816406 -0.285156 34.3125 -0.0859375 33.6875 0.046875 C 33.0625 0.179688 32.421875 0.25 31.765625 0.25 C 29.835938 0.25 28.382812 -0.171875 27.40625 -1.015625 C 26.425781 -1.859375 25.796875 -3.109375 25.515625 -4.765625 L 24.84375 -4.828125 C 23.851562 -2.984375 22.507812 -1.601562 20.8125 -0.6875 C 19.125 0.21875 17 0.671875 14.4375 0.671875 Z M 15.578125 -3.453125 C 17.523438 -3.453125 19.210938 -3.898438 20.640625 -4.796875 C 22.066406 -5.703125 23.160156 -6.96875 23.921875 -8.59375 C 24.691406 -10.226562 25.078125 -12.113281 25.078125 -14.25 L 25.078125 -18.6875 L 24.46875 -18.828125 C 23.6875 -18.273438 22.734375 -17.8125 21.609375 -17.4375 C 20.492188 -17.070312 18.929688 -16.738281 16.921875 -16.4375 C 14.890625 -16.164062 13.273438 -15.742188 12.078125 -15.171875 C 10.878906 -14.597656 10.023438 -13.875 9.515625 -13 C 9.015625 -12.125 8.765625 -11.039062 8.765625 -9.75 C 8.765625 -7.695312 9.363281 -6.132812 10.5625 -5.0625 C 11.769531 -3.988281 13.441406 -3.453125 15.578125 -3.453125 Z M 15.578125 -3.453125 "/></g></g></g><g fill="#000000" fill-opacity="1"><g transform="translate(279.21715, 220.875014)"><g><path d="M 28 0 L 2.375 0 L 2.375 -4.5 L 21.609375 -30.125 L 21.421875 -30.78125 L 3.171875 -30.78125 L 3.171875 -35.046875 L 27.703125 -35.046875 L 27.703125 -30.53125 L 8.46875 -4.921875 L 8.703125 -4.25 L 28 -4.25 Z M 28 0 "/></g></g></g><g fill="#000000" fill-opacity="1"><g transform="translate(306.463997, 220.875014)"><g><path d="M 7.015625 14.859375 C 5.828125 14.859375 4.71875 14.753906 3.6875 14.546875 C 2.664062 14.347656 1.785156 14.070312 1.046875 13.71875 L 2 9.609375 L 2.578125 9.421875 C 3.078125 9.679688 3.707031 9.898438 4.46875 10.078125 C 5.238281 10.253906 6.023438 10.34375 6.828125 10.34375 C 8.242188 10.34375 9.414062 10.148438 10.34375 9.765625 C 11.28125 9.390625 12.082031 8.757812 12.75 7.875 C 13.414062 7 14.03125 5.789062 14.59375 4.25 L 15.84375 0.828125 L 1.78125 -35 L 7.359375 -35 L 18.375 -6.4375 L 18.984375 -6.4375 L 29.640625 -35 L 34.9375 -35 L 19.296875 5.484375 C 18.410156 7.734375 17.414062 9.539062 16.3125 10.90625 C 15.207031 12.269531 13.90625 13.269531 12.40625 13.90625 C 10.90625 14.539062 9.109375 14.859375 7.015625 14.859375 Z M 7.015625 14.859375 "/></g></g></g><g clip-path="url(#56ae434db0)"><g clip-path="url(#ca3995581d)"><g clip-path="url(#144f36e126)"><path fill="#df6951" d="M 96.882812 171.90625 L 90.636719 170.21875 L 88.007812 171.609375 L 92.984375 174.09375 C 90.730469 175.476562 88.457031 177.082031 86.640625 178.503906 C 84.792969 177.722656 83.527344 176.207031 81.84375 177.121094 L 84.144531 181.382812 C 84.34375 181.617188 84.683594 181.726562 85.148438 181.597656 C 88.183594 180.730469 93.769531 178.648438 97.929688 176.417969 C 104.722656 172.796875 107.121094 170.3125 106.570312 169.21875 C 106.035156 168.226562 102.945312 168.777344 96.882812 171.90625 Z M 96.882812 171.90625 " fill-opacity="1" fill-rule="nonzero"/></g></g></g><g clip-path="url(#750a19ea9d)"><g clip-path="url(#7864352ff7)"><g clip-path="url(#74ca605245)"><path fill="#df6951" d="M 108.878906 170.632812 C 122.058594 164.019531 136.085938 159.050781 150.484375 155.683594 L 155.898438 154.488281 L 161.347656 153.453125 L 166.828125 152.566406 L 172.324219 151.824219 C 179.671875 150.941406 187.066406 150.46875 194.464844 150.367188 C 201.867188 150.296875 209.269531 150.601562 216.636719 151.3125 L 222.148438 151.929688 L 227.644531 152.691406 L 233.121094 153.601562 L 238.5625 154.667969 C 253.03125 157.703125 267.171875 162.351562 280.5 168.667969 C 266.875 163.023438 252.722656 158.777344 238.292969 156.011719 L 232.867188 155.046875 L 227.421875 154.210938 L 221.960938 153.515625 L 216.480469 152.96875 C 209.171875 152.3125 201.828125 152.019531 194.488281 152.117188 C 187.144531 152.1875 179.8125 152.648438 172.515625 153.46875 L 167.050781 154.144531 L 161.605469 154.964844 L 156.183594 155.925781 L 150.78125 157.011719 C 136.417969 160.109375 122.363281 164.679688 108.878906 170.632812 Z M 108.878906 170.632812 " fill-opacity="1" fill-rule="nonzero"/></g></g></g><g clip-path="url(#269cac1ce1)"><g clip-path="url(#0b0630ff73)"><g clip-path="url(#c0ba68bf16)"><path fill="#df6951" d="M 296.082031 174.496094 L 294.335938 168.269531 L 291.792969 166.722656 L 292.207031 172.265625 C 289.863281 171.039062 287.324219 169.90625 285.171875 169.074219 C 284.894531 167.085938 285.550781 165.222656 283.902344 164.246094 L 281.421875 168.398438 C 281.320312 168.691406 281.402344 169.039062 281.75 169.371094 C 284.046875 171.539062 288.691406 175.273438 292.738281 177.707031 C 299.324219 181.691406 302.6875 182.480469 303.347656 181.445312 C 303.921875 180.476562 301.871094 178.105469 296.082031 174.496094 Z M 296.082031 174.496094 " fill-opacity="1" fill-rule="nonzero"/></g></g></g></svg>