<svg width="58" height="41" viewBox="0 0 58 41" fill="none" xmlns="http://www.w3.org/2000/svg">
<path d="M4.6757 37.1635V28.8105H3.31152V37.1635H4.6757Z" fill="#152C4F"/>
<path d="M5.51062 34.379C5.51062 36.0855 6.65117 37.298 8.38432 37.298C10.1175 37.298 11.258 36.0855 11.258 34.379C11.258 32.6725 10.1175 31.46 8.38432 31.46C6.65117 31.46 5.51062 32.6725 5.51062 34.379ZM6.88596 34.379C6.88596 33.3798 7.47862 32.6837 8.38432 32.6837C9.29003 32.6837 9.88268 33.3798 9.88268 34.379C9.88268 35.3669 9.29003 36.0742 8.38432 36.0742C7.47862 36.0742 6.88596 35.3669 6.88596 34.379Z" fill="#152C4F"/>
<path d="M11.7169 34.2667C11.7169 35.8835 12.7568 37.0511 14.3111 37.0511C15.1162 37.0511 15.8094 36.7254 16.156 36.1866V37.1296C16.156 38.039 15.5858 38.6453 14.6353 38.6453C13.7855 38.6453 13.2041 38.2299 13.1258 37.5001H11.7505C11.9294 38.9484 13.0363 39.8915 14.5571 39.8915C16.3462 39.8915 17.4867 38.7126 17.4867 36.8826V31.6172H16.2791L16.2008 32.3694C15.8653 31.7856 15.1721 31.4375 14.3558 31.4375C12.7792 31.4375 11.7169 32.6388 11.7169 34.2667ZM13.1035 34.233C13.1035 33.3124 13.6849 32.6388 14.5459 32.6388C15.4852 32.6388 16.1113 33.3237 16.1113 34.233C16.1113 35.1537 15.4852 35.861 14.5459 35.861C13.6961 35.861 13.1035 35.1649 13.1035 34.233Z" fill="#152C4F"/>
<path d="M18.1617 34.379C18.1617 36.0855 19.3023 37.298 21.0354 37.298C22.7686 37.298 23.9091 36.0855 23.9091 34.379C23.9091 32.6725 22.7686 31.46 21.0354 31.46C19.3023 31.46 18.1617 32.6725 18.1617 34.379ZM19.5371 34.379C19.5371 33.3798 20.1297 32.6837 21.0354 32.6837C21.9411 32.6837 22.5338 33.3798 22.5338 34.379C22.5338 35.3669 21.9411 36.0742 21.0354 36.0742C20.1297 36.0742 19.5371 35.3669 19.5371 34.379Z" fill="#152C4F"/>
<path d="M25.3855 30.4834C25.8328 30.4834 26.2018 30.1241 26.2018 29.6638C26.2018 29.2147 25.8328 28.8555 25.3855 28.8555C24.9271 28.8555 24.5804 29.2147 24.5804 29.6638C24.5804 30.1241 24.9271 30.4834 25.3855 30.4834ZM24.7035 37.1635H26.0677V31.6173H24.7035V37.1635Z" fill="#152C4F"/>
<path d="M27.2627 39.7348H28.5933V36.4004C28.9399 36.9729 29.6891 37.3097 30.5166 37.3097C32.1491 37.3097 33.1219 36.0523 33.0995 34.3233C33.066 32.5831 32.0708 31.4492 30.5054 31.4492C29.6668 31.4492 28.9064 31.8197 28.5709 32.4596L28.4927 31.6176H27.2627V39.7348ZM28.6492 34.3907C28.6492 33.3915 29.253 32.6954 30.2035 32.6954C31.1539 32.6954 31.7242 33.4027 31.7242 34.3907C31.7242 35.3787 31.1539 36.0747 30.2035 36.0747C29.253 36.0747 28.6492 35.3899 28.6492 34.3907Z" fill="#152C4F"/>
<path d="M33.4459 35.5022C33.4907 36.6024 34.3405 37.3097 35.6599 37.3097C36.957 37.3097 37.8403 36.6137 37.8403 35.5359C37.8403 34.7387 37.3484 34.1998 36.4426 33.9753L35.4698 33.7395C35.0561 33.6273 34.7766 33.4813 34.7766 33.1221C34.7766 32.7403 35.0785 32.4709 35.5704 32.4709C36.0848 32.4709 36.4203 32.7628 36.4203 33.2456H37.6615C37.6167 32.1453 36.8005 31.4492 35.604 31.4492C34.4187 31.4492 33.5354 32.1453 33.5354 33.2006C33.5354 33.9192 33.9491 34.5142 35.0114 34.7949L35.973 35.0419C36.3308 35.1429 36.5545 35.3113 36.5545 35.6257C36.5545 36.0635 36.1407 36.2656 35.6376 36.2656C35.0338 36.2656 34.6871 35.9849 34.6871 35.5022H33.4459Z" fill="#152C4F"/>
<path d="M40.6699 37.3093C41.4191 37.3093 42.1347 36.9612 42.459 36.4448L42.5484 37.1633H43.8231V31.6172H42.459V34.525C42.459 35.5242 42.0788 36.0855 41.1843 36.0855C40.491 36.0855 40.0102 35.7487 40.0102 34.6035V31.6172H38.646V35.0863C38.646 36.4111 39.3616 37.3093 40.6699 37.3093Z" fill="#152C4F"/>
<path d="M46.3914 37.1638V33.9753C46.3914 33.0771 46.9169 32.6505 47.5655 32.6505C48.214 32.6505 48.6389 33.0659 48.6389 33.8518V37.1638H49.9695V33.9865C49.9695 33.0771 50.4839 32.6505 51.1324 32.6505C51.7921 32.6505 52.2171 33.0659 52.2171 33.8518V37.1638H53.5365V33.5374C53.5365 32.2576 52.832 31.4492 51.4902 31.4492C50.6516 31.4492 49.9919 31.8534 49.7235 32.5046C49.4216 31.8534 48.8178 31.4492 47.9009 31.4492C47.2524 31.4492 46.6709 31.7523 46.3467 32.2463L46.2795 31.6176H45.0272V37.1638H46.3914Z" fill="#152C4F"/>
<path d="M25.1054 21.2497C23.3082 24.4964 19.649 26.041 15.949 26.041H1.10388C16.5577 24.1018 27.3202 16.3451 28.7001 5.54102C30.0799 16.3451 40.8424 24.1018 56.2962 26.041H41.4511C37.7511 26.041 34.0919 24.4964 32.2947 21.2497C30.3495 17.7357 29.1102 13.7595 28.7001 9.41939C28.2899 13.7595 27.0506 17.7357 25.1054 21.2497Z" fill="#1A4688"/>
<path d="M16.6158 20.1021C15.7489 20.592 14.837 21.0522 13.8821 21.4809C13.3398 19.6001 13.1402 17.6269 13.2994 15.6612C13.5099 13.0607 14.3418 10.5537 15.7214 8.36224C17.1011 6.17079 18.9857 4.36246 21.2085 3.0975C23.4313 1.83254 25.9237 1.14996 28.4648 1.11024C31.0059 1.07051 33.5174 1.67487 35.7767 2.86977C38.036 4.06467 39.9734 5.81321 41.4173 7.96055C42.8612 10.1079 43.7671 12.5877 44.0547 15.1804C44.2899 17.301 44.1055 19.4437 43.518 21.4809C42.5632 21.0522 41.6513 20.592 40.7844 20.102C41.1498 18.6126 41.2523 17.0632 41.082 15.528C40.8501 13.4373 40.1196 11.4375 38.9552 9.70593C37.7908 7.97435 36.2285 6.56428 34.4066 5.60073C32.5847 4.63715 30.5595 4.14981 28.5104 4.18184C26.4612 4.21387 24.4514 4.7643 22.6589 5.78434C20.8664 6.80441 19.3466 8.26262 18.2341 10.0298C17.1216 11.797 16.4507 13.8187 16.281 15.9157C16.1668 17.3252 16.2814 18.7396 16.6158 20.1021Z" fill="#7FB5E6"/>
</svg>
