<svg width="23" height="16" viewBox="0 0 23 16" fill="none" xmlns="http://www.w3.org/2000/svg">
<path fill-rule="evenodd" clip-rule="evenodd" d="M7.89957 1.68362C7.64322 1.50409 7.30836 1.49013 7.03855 1.64711C6.65186 1.87207 6.51494 2.37553 6.74173 2.77136L10.7167 9.70899L5.84556 12.5428L2.73592 10.4739C2.57695 10.3682 2.37345 10.3621 2.20884 10.4579C1.96689 10.5987 1.87954 10.9157 2.02277 11.1657L3.47843 13.7062C3.75837 14.1948 4.31392 14.4443 4.85582 14.3325L9.13442 13.4502C9.48735 13.3775 9.82643 13.2478 10.1387 13.0661L20.2784 7.16703C20.8973 6.807 21.1138 6.00439 20.753 5.37463C20.3941 4.74826 19.6045 4.53821 18.9891 4.89621L15.4374 6.96252L7.89957 1.68362ZM8.7821 0.423448L15.5141 5.13802L18.2155 3.56642C19.5735 2.77633 21.3073 3.24761 22.0879 4.6098C22.8663 5.96859 22.4067 7.70875 21.0521 8.49679L10.9124 14.3959C10.4566 14.6611 9.96109 14.8505 9.44509 14.957L5.16652 15.8393C3.96853 16.0863 2.75156 15.5323 2.14354 14.471L0.687892 11.9305C0.126969 10.9515 0.457512 9.69689 1.43519 9.12817C2.10704 8.7373 2.94107 8.76264 3.58812 9.1931L5.90007 10.7313L8.622 9.14776L5.40685 3.53618C4.76236 2.41133 5.14249 0.97032 6.2649 0.317325C7.05353 -0.141495 8.03484 -0.0998752 8.7821 0.423448Z" fill="#DF6951"/>
</svg>
