<svg width="18" height="20" viewBox="0 0 18 20" fill="none" xmlns="http://www.w3.org/2000/svg">
<path d="M17.4075 18.8889H15.7409V0.555556C15.7409 0.408213 15.6823 0.266905 15.5781 0.162719C15.474 0.0585317 15.3326 0 15.1853 0H2.96308C2.81574 0 2.67443 0.0585317 2.57024 0.162719C2.46606 0.266905 2.40752 0.408213 2.40752 0.555556V18.8889H0.740858C0.593516 18.8889 0.452208 18.9474 0.348021 19.0516C0.243834 19.1558 0.185303 19.2971 0.185303 19.4444C0.185303 19.5918 0.243834 19.7331 0.348021 19.8373C0.452208 19.9415 0.593516 20 0.740858 20H17.4075C17.5549 20 17.6962 19.9415 17.8004 19.8373C17.9045 19.7331 17.9631 19.5918 17.9631 19.4444C17.9631 19.2971 17.9045 19.1558 17.8004 19.0516C17.6962 18.9474 17.5549 18.8889 17.4075 18.8889ZM7.40752 18.8889V15.5556H10.7409V18.8889H7.40752ZM11.852 18.8889V15.5556H12.4075C12.5549 15.5556 12.6962 15.497 12.8004 15.3928C12.9045 15.2887 12.9631 15.1473 12.9631 15C12.9631 14.8527 12.9045 14.7114 12.8004 14.6072C12.6962 14.503 12.5549 14.4444 12.4075 14.4444H5.74086C5.59351 14.4444 5.45221 14.503 5.34802 14.6072C5.24383 14.7114 5.1853 14.8527 5.1853 15C5.1853 15.1473 5.24383 15.2887 5.34802 15.3928C5.45221 15.497 5.59351 15.5556 5.74086 15.5556H6.29641V18.8889H3.51864V1.11111H14.6297V18.8889H11.852Z" fill="#DF6951"/>
</svg>
