<svg width="17" height="20" viewBox="0 0 17 20" fill="none" xmlns="http://www.w3.org/2000/svg">
<path d="M10.189 7.98241L7.1956 10.9757L5.97138 9.75055C5.78046 9.56341 5.47482 9.56341 5.28384 9.75055C5.0901 9.94046 5.08698 10.2514 5.27682 10.4452L6.84835 12.0177C6.94045 12.1098 7.06536 12.1616 7.19566 12.1616C7.3259 12.1616 7.4508 12.1098 7.54291 12.0177L10.8906 8.66995C11.0805 8.47621 11.0773 8.16518 10.8836 7.97533C10.6899 7.78549 10.3789 7.7886 10.189 7.98241ZM16.175 1.89821C16.1194 1.63257 15.8591 1.46227 15.5934 1.5178C13.1675 2.03007 10.6379 1.51276 8.60792 0.0892258C8.4387 -0.0297419 8.213 -0.0297419 8.04378 0.0892258C6.01384 1.51282 3.48415 2.03019 1.05827 1.5178C1.02529 1.5109 0.991709 1.50742 0.95801 1.50742C0.686615 1.50724 0.466488 1.72707 0.466309 1.99846V9.87624C0.467928 12.7609 1.85668 15.4689 4.19844 17.1534L8.03994 19.9079C8.12323 19.9679 8.22325 20.0001 8.32585 20C8.42845 20.0001 8.52847 19.9679 8.61176 19.908L12.4533 17.1534C14.795 15.4689 16.1838 12.7609 16.1854 9.87624V1.99846C16.1854 1.96477 16.1819 1.93119 16.175 1.89821ZM15.2029 9.87624C15.2019 12.4443 13.9659 14.8552 11.8814 16.3552L8.32585 18.9043L4.77025 16.3552C2.6858 14.8551 1.44983 12.4443 1.44875 9.87624V2.58563C3.84765 2.94397 6.29465 2.40975 8.32585 1.08414C10.3572 2.40939 12.8041 2.94361 15.2029 2.58563V9.87624Z" fill="#DF6951"/>
</svg>
