<svg width="26" height="18" viewBox="0 0 26 18" fill="none" xmlns="http://www.w3.org/2000/svg">
<path d="M25.68 8.87323C25.6265 8.80401 25.553 8.75299 25.4694 8.72716C25.3858 8.70133 25.2963 8.70195 25.2131 8.72894C24.2116 9.03568 23.1301 8.94191 22.1963 8.46735C21.2626 7.99279 20.5493 7.17447 20.2067 6.18463C19.8641 5.19479 19.9189 4.11064 20.3595 3.16038C20.8002 2.21012 21.5923 1.46787 22.5692 1.08987C22.6538 1.05742 22.7259 0.998715 22.7748 0.922342C22.8236 0.84597 22.8468 0.755951 22.8408 0.665475C22.8378 0.577647 22.8076 0.492915 22.7544 0.422978C22.7012 0.35304 22.6276 0.301347 22.5437 0.275034C21.334 -0.111021 20.0312 -0.0901522 18.8345 0.334449C17.7343 0.709672 16.7683 1.3994 16.0562 2.3182C15.3441 3.237 14.9171 4.34451 14.8282 5.50355C14.083 5.02376 13.2487 4.69901 12.3753 4.54867C12.2692 4.52745 12.1673 4.51047 12.0612 4.49774L11.8235 4.47228C11.6241 4.47228 11.4289 4.44257 11.2251 4.44257C9.73838 4.44135 8.29293 4.93181 7.11391 5.83757C5.93488 6.74333 5.08847 8.01354 4.70648 9.45041C4.70838 9.46164 4.70838 9.47312 4.70648 9.48436C4.66404 9.65412 4.62584 9.82387 4.59613 10.0021C4.59613 10.0828 4.57067 10.1634 4.55794 10.2483C4.54521 10.3331 4.53248 10.3713 4.52823 10.4308C3.52536 10.4898 2.58703 10.9449 1.91968 11.6958C1.25233 12.4468 0.910607 13.432 0.969699 14.4349C1.02879 15.4378 1.48385 16.3761 2.23478 17.0435C2.9857 17.7108 3.97097 18.0525 4.97385 17.9934H22.3018C23.0458 17.9845 23.756 17.6812 24.277 17.1499C24.7979 16.6186 25.0872 15.9026 25.0816 15.1585C25.0864 14.4618 24.8383 13.787 24.3832 13.2594C23.9282 12.7318 23.2972 12.3872 22.6074 12.2896C22.5651 12.0983 22.5113 11.9098 22.4461 11.7252L22.7304 11.6573C23.9461 11.2392 24.9902 10.4323 25.7012 9.36129C25.7484 9.28766 25.7716 9.20126 25.7678 9.1139C25.764 9.02654 25.7333 8.94249 25.68 8.87323ZM24.2328 15.1585C24.2396 15.6778 24.0401 16.1786 23.6781 16.5509C23.316 16.9233 22.8211 17.1368 22.3018 17.1446H4.97385C4.21397 17.1238 3.49178 16.8091 2.95914 16.2668C2.42649 15.7244 2.12489 14.9967 2.11774 14.2366C2.1106 13.4764 2.39847 12.7431 2.92083 12.1909C3.44318 11.6386 4.15933 11.3104 4.91867 11.2753H5.3176L5.33882 10.8764C5.33882 10.7491 5.36429 10.626 5.37702 10.4987C5.38975 10.3713 5.37702 10.3374 5.40673 10.2568V10.2313C5.64553 8.85877 6.35903 7.6138 7.42257 6.71394C8.48611 5.81409 9.83203 5.31657 11.2251 5.30833C11.4034 5.30833 11.5774 5.30833 11.7514 5.3338L11.9763 5.35926L12.2352 5.4017L12.545 5.46111H12.6002C13.4605 5.67375 14.2614 6.07857 14.9428 6.64517C14.9428 6.64517 14.964 6.67912 14.981 6.68761C15.168 6.84048 15.3451 7.0049 15.5115 7.17991V7.20113C15.6642 7.36572 15.8059 7.54009 15.9359 7.72313L16.0123 7.82498C16.1467 8.01429 16.27 8.21126 16.3815 8.41489C16.3831 8.43041 16.3831 8.44605 16.3815 8.46157C16.486 8.65856 16.5795 8.86116 16.6616 9.06845C16.9375 9.75844 17.0814 10.494 17.086 11.2371C17.1156 11.8346 17.038 12.4325 16.8568 13.0026C16.8373 13.0552 16.8283 13.1112 16.8306 13.1673C16.8328 13.2235 16.8461 13.2786 16.8698 13.3295C16.8935 13.3804 16.927 13.4261 16.9685 13.464C17.01 13.5019 17.0586 13.5311 17.1115 13.55C17.1577 13.5668 17.2066 13.5754 17.2558 13.5755C17.343 13.5755 17.4281 13.5486 17.4995 13.4984C17.5708 13.4483 17.625 13.3774 17.6547 13.2954C17.8798 12.6391 17.9848 11.9476 17.9645 11.2541C17.9655 10.6226 17.8783 9.99413 17.7056 9.38675H17.9475C18.1194 9.38664 18.2911 9.39941 18.461 9.42495H18.5332C19.1625 9.5242 19.7584 9.77449 20.2699 10.1544C20.7814 10.5343 21.1932 11.0325 21.47 11.6063C21.4885 11.6451 21.5128 11.6809 21.5421 11.7124C21.6867 12.0408 21.7838 12.388 21.8307 12.7437L21.8816 13.1087H22.2551C22.7887 13.1198 23.2961 13.3417 23.6667 13.7257C24.0372 14.1098 24.2407 14.6249 24.2328 15.1585ZM22.4843 10.8424L22.0854 10.94C21.724 10.3088 21.2235 9.76829 20.622 9.35943C20.0205 8.95057 19.3337 8.68415 18.6138 8.5804H18.5205C18.3275 8.55698 18.1334 8.54423 17.939 8.54221H17.4043C17.3619 8.4446 17.3109 8.34699 17.2643 8.25362C17.1683 8.05717 17.0621 7.86593 16.946 7.68069V7.65098C16.5972 7.08824 16.1683 6.57929 15.6728 6.14014C15.6393 5.04658 15.9571 3.97105 16.5795 3.07132C17.202 2.17158 18.0964 1.495 19.1316 1.1408C19.7929 0.908584 20.4952 0.816098 21.1941 0.869184C20.3256 1.47739 19.6784 2.35147 19.35 3.35963C19.0216 4.36778 19.0298 5.45538 19.3735 6.45844C19.7276 7.4614 20.3948 8.32387 21.2768 8.91843C22.1587 9.513 23.2084 9.80813 24.271 9.76021C23.7571 10.2412 23.1486 10.6098 22.4843 10.8424Z" fill="#DF6951"/>
</svg>
