<svg xmlns="http://www.w3.org/2000/svg" version="1.1" viewBox="-5.0 -10.0 110.0 135.0">
 <path d="m82.957 54.641c4.375-2.3789 7.457-6.5859 8.4023-11.473 0.94922-4.8867-0.33984-9.9414-3.5078-13.781-3.168-3.8398-7.8867-6.0625-12.867-6.0586-4.9766 0.003906-9.6953 2.2344-12.855 6.0781-3.1641 3.8477-4.4414 8.9023-3.4883 13.789 0.95703 4.8867 4.0469 9.0898 8.4258 11.457-1.5859 0.54297-3.1094 1.25-4.5469 2.1094-0.98828-1.2773-2.0625-2.4844-3.2148-3.6133-4.1562-4.0273-9.25-6.9531-14.816-8.5156 6.5664-2.9258 11.422-8.7148 13.152-15.695 1.7344-6.9805 0.15234-14.367-4.2891-20.023-4.4375-5.6602-11.238-8.9531-18.43-8.9297-7.1875 0.019531-13.969 3.3555-18.371 9.043-4.4062 5.6836-5.9414 13.082-4.168 20.051 1.7773 6.9688 6.668 12.727 13.254 15.613-7.4023 2.2266-13.895 6.7773-18.512 12.98s-7.1133 13.727-7.125 21.461v12.535c0.0039062 4.5977 3.7344 8.3281 8.332 8.332h85c3.6758 0 6.6602-2.9766 6.668-6.6484v-15.102c-0.003906-5.2266-1.6523-10.32-4.7109-14.555-3.0586-4.2383-7.375-7.4062-12.332-9.0547zm-21.289-14.641c0-5.3945 3.2461-10.254 8.2305-12.32 4.9805-2.0625 10.715-0.92188 14.531 2.8906 3.8125 3.8164 4.9531 9.5508 2.8906 14.531-2.0664 4.9844-6.9258 8.2305-12.32 8.2305-7.3594-0.007812-13.324-5.9727-13.332-13.332zm-46.668-16.668c0-5.3047 2.1055-10.391 5.8594-14.141 3.75-3.75 8.8359-5.8594 14.141-5.8594s10.391 2.1094 14.141 5.8594c3.7539 3.75 5.8594 8.8359 5.8594 14.141 0 5.3047-2.1055 10.395-5.8594 14.145-3.75 3.75-8.8359 5.8555-14.141 5.8555-5.3008-0.003906-10.387-2.1133-14.137-5.8633s-5.8594-8.832-5.8633-14.137zm41.668 73.336h-48.336c-2.7617 0-5-2.2383-5-5v-12.535c0-17.301 13.688-31.848 30.512-32.445 0.39062-0.011719 0.77734-0.019531 1.168-0.019531 8.3945 0 16.445 3.3398 22.383 9.2773s9.2734 13.992 9.2734 22.387v13.336c0 2.7617-2.2383 5-5 5zm40-3.3164c-0.011719 1.832-1.5 3.3164-3.3359 3.3164h-25.043c1.1055-1.4336 1.7031-3.1914 1.7109-5v-13.336c0.011719-6.6836-1.9102-13.23-5.5352-18.848 2.8906-1.6758 6.1445-2.6328 9.4805-2.7852 5.9102-0.30078 11.684 1.832 15.98 5.9062 4.293 4.0742 6.7305 9.7266 6.7422 15.645z" fill="#DF6951"/>
<text x="0.0" y="117.5" font-size="5.0" font-weight="bold" font-family="Arbeit Regular, Helvetica, Arial-Unicode, Arial, Sans-serif" fill="#000000">Created by Juicy Fish</text><text x="0.0" y="122.5" font-size="5.0" font-weight="bold" font-family="Arbeit Regular, Helvetica, Arial-Unicode, Arial, Sans-serif" fill="#000000">from Noun Project</text></svg>
