<svg width="10" height="10" viewBox="0 0 10 10" fill="none" xmlns="http://www.w3.org/2000/svg">
<path d="M2.5 0C2.32935 0 2.16892 0.0875538 2.068 0.235754L0.103714 3.12037C-0.039959 3.33135 -0.033804 3.62004 0.118707 3.8237L4.583 9.78523C4.6847 9.92108 4.838 10 5.00001 10C5.16202 10 5.31532 9.92108 5.41702 9.78523L9.8813 3.8237C10.0338 3.62004 10.0399 3.33135 9.8963 3.12037L7.93201 0.235754C7.83109 0.0875538 7.67066 0 7.50001 0H2.5ZM1.46195 3.07692L2.77147 1.15385H3.19992L2.64188 3.07692H1.46195ZM3.76441 3.07692L4.32244 1.15385H5.67758L6.23561 3.07692H3.76441ZM6.17829 4.23077L5.00001 7.46077L3.82173 4.23077H6.17829ZM6.50244 6.49769L7.32944 4.23077H8.20009L6.50244 6.49769ZM7.35816 3.07692L6.80008 1.15385H7.22851L8.53809 3.07692H7.35816ZM1.79997 4.23077H2.67058L3.49754 6.49769L1.79997 4.23077Z" fill="#DF6951"/>
</svg>
